<svg width="29.998535" height="30.000000" viewBox="0 0 29.9985 30" fill="none" xmlns="http://www.w3.org/2000/svg" xmlns:xlink="http://www.w3.org/1999/xlink">
	<desc>
			Created with Pixso.
	</desc>
	<defs/>
	<path id="Vector" d="M13.6816 0L27.959 2.04089L29.9985 16.3199L16.7407 29.5777C16.4702 29.8481 16.1035 30 15.7212 30C15.3384 30 14.9717 29.8481 14.7012 29.5777L0.422363 15.2987C0.151855 15.0282 0 14.6614 0 14.279C0 13.8965 0.151855 13.5298 0.422363 13.2593L13.6816 0ZM17.7603 12.2395C18.0283 12.5074 18.3462 12.7198 18.6963 12.8647C19.0464 13.0096 19.4214 13.0842 19.8003 13.0841C20.1792 13.084 20.5542 13.0094 20.9043 12.8643C21.2544 12.7193 21.5723 12.5067 21.8398 12.2388C22.1079 11.9709 22.3203 11.6529 22.4653 11.3028C22.6104 10.9528 22.6846 10.5777 22.6846 10.1989C22.6846 9.82005 22.6099 9.44495 22.4648 9.09497C22.3198 8.74501 22.1074 8.42705 21.8394 8.15923C21.5713 7.89139 21.2534 7.67897 20.9033 7.53406C20.5532 7.38914 20.1782 7.31461 19.7993 7.31467C19.0342 7.3148 18.3008 7.61885 17.7598 8.15994C17.2188 8.70102 16.915 9.43481 16.915 10.1999C16.9155 10.965 17.2192 11.6987 17.7603 12.2395Z" fill="#E0BEA2" fill-opacity="1.000000" fill-rule="nonzero"/>
</svg>
