<svg width="25.000000" height="25.000000" viewBox="0 0 25 25" fill="none" xmlns="http://www.w3.org/2000/svg" xmlns:xlink="http://www.w3.org/1999/xlink">
	<desc>
			Created with Pixso.
	</desc>
	<defs>
		<clipPath id="clip100_37">
			<rect id="Frame" width="25.000000" height="25.000000" fill="white" fill-opacity="0"/>
		</clipPath>
	</defs>
	<rect id="Frame" width="25.000000" height="25.000000" fill="#FFFFFF" fill-opacity="0"/>
	<g clip-path="url(#clip100_37)">
		<path id="Vector" d="M3.81665 5.48062L0 1.66525L1.66528 0L5.48071 3.81656L23.4182 3.81656C23.6018 3.81653 23.7827 3.85941 23.9465 3.94174C24.1106 4.02405 24.2529 4.14355 24.3623 4.29071C24.4719 4.43784 24.5457 4.60855 24.5774 4.78922C24.6091 4.96985 24.5984 5.15546 24.5457 5.33118L21.7212 14.746C21.6487 14.9886 21.4998 15.2012 21.2966 15.3524C21.0935 15.5035 20.8469 15.5851 20.5938 15.5851L6.17017 15.5851L6.17017 17.9388L19.1157 17.9388L19.1157 20.2926L4.99341 20.2926C4.6814 20.2926 4.38184 20.1686 4.16113 19.9479C3.94043 19.7272 3.81665 19.4278 3.81665 19.1157L3.81665 5.48062ZM6.17017 6.17026L6.17017 13.2314L19.7183 13.2314L21.8367 6.17026L6.17017 6.17026ZM5.58179 25C5.11377 25 4.66455 24.814 4.3335 24.483C4.00244 24.1519 3.81665 23.7029 3.81665 23.2347C3.81665 22.7665 4.00244 22.3175 4.3335 21.9865C4.66455 21.6554 5.11377 21.4694 5.58179 21.4694C6.05005 21.4694 6.49902 21.6554 6.83008 21.9865C7.16113 22.3175 7.34717 22.7665 7.34717 23.2347C7.34717 23.7029 7.16113 24.1519 6.83008 24.483C6.49902 24.814 6.05005 25 5.58179 25ZM19.7041 25C19.2358 25 18.7869 24.814 18.4558 24.483C18.1248 24.1519 17.939 23.7029 17.939 23.2347C17.939 22.7665 18.1248 22.3175 18.4558 21.9865C18.7869 21.6554 19.2358 21.4694 19.7041 21.4694C20.1724 21.4694 20.6213 21.6554 20.9524 21.9865C21.2834 22.3175 21.4695 22.7665 21.4695 23.2347C21.4695 23.7029 21.2834 24.1519 20.9524 24.483C20.6213 24.814 20.1724 25 19.7041 25Z" fill="rgb(224, 190, 162)" fill-opacity="1.000000" fill-rule="nonzero"/>
	</g>
</svg>