<svg xmlns="http://www.w3.org/2000/svg" width="30" height="30" fill="none"><path fill="#E0BEA2" d="M20 0c.78 0 1.42.63 1.42 1.42v1.43h7.15v8.57h-2.89l3.95 10.85c.24.63.37 1.3.37 2.01a5.71 5.71 0 0 1-5.72 5.71 5.71 5.71 0 0 1-5.53-4.28h-6.08A5.72 5.72 0 0 1 7.14 30a5.72 5.72 0 0 1-5.61-4.62A2.844 2.844 0 0 1 0 22.85v-7.14h12.85c0 .73.55 1.34 1.26 1.42l.17.01h2.86c.73 0 1.33-.55 1.42-1.26l.01-.17V2.85h-4.29V0H20ZM7.14 21.42a2.86 2.86 0 1 0-.001 5.719 2.86 2.86 0 0 0 .001-5.719Zm17.14 0a2.86 2.86 0 1 0-.001 5.719 2.86 2.86 0 0 0 .001-5.719ZM11.42 2.85c.79 0 1.43.64 1.43 1.43v10H0v-10c0-.79.63-1.43 1.42-1.43h10Zm14.29 2.86h-4.29v2.86h4.29V5.71ZM10 5.71H2.85v1.43H10V5.71Z"/></svg>