<svg xmlns="http://www.w3.org/2000/svg" width="30" height="30" fill="none"><path fill="#E0BEA2" d="M15 30C6.71 30 0 23.28 0 15 0 6.71 6.71 0 15 0c8.28 0 15 6.71 15 15 0 8.28-6.72 15-15 15ZM9.75 18v3h3.75v3h3v-3H18c.99 0 1.94-.4 2.65-1.1.7-.71 1.1-1.66 1.1-2.65 0-1-.4-1.95-1.1-2.66-.71-.7-1.66-1.09-2.65-1.09h-6a.79.79 0 0 1-.54-.22.775.775 0 0 1-.21-.53c0-.2.07-.39.21-.54A.78.78 0 0 1 12 12h8.25V9H16.5V6h-3v3H12c-1 0-1.95.39-2.66 1.09a3.778 3.778 0 0 0 0 5.31c.71.7 1.66 1.1 2.66 1.1h6c.19 0 .38.07.53.21.14.15.22.34.22.54 0 .19-.08.38-.22.53-.15.14-.34.22-.53.22H9.75Z"/></svg>