<svg width="25.000000" height="23.105804" viewBox="0 0 25 23.1058" fill="none" xmlns="http://www.w3.org/2000/svg" xmlns:xlink="http://www.w3.org/1999/xlink">
	<desc>
			Created with Pixso.
	</desc>
	<defs/>
	<path id="Vector" d="M12.501 1.91119C15.4373 -0.725006 19.9746 -0.637512 22.8032 2.1962C25.6309 5.03113 25.7283 9.54605 23.0984 12.491L12.4985 23.1058L1.90112 12.491C-0.72876 9.54605 -0.629883 5.02362 2.19629 2.1962C5.02734 -0.633759 9.55615 -0.72876 12.501 1.91119ZM21.0334 3.9624C19.1584 2.08493 16.1335 2.0087 14.1709 3.77115L12.5022 5.26862L10.8323 3.7724C8.86353 2.00745 5.84497 2.08493 3.96484 3.9649C2.10254 5.82736 2.00879 8.80856 3.72485 10.7785L12.4998 19.5671L21.2747 10.7798C22.9922 8.80856 22.8984 5.83112 21.0334 3.9624Z" fill="rgb(224, 190, 162)" fill-opacity="1.000000" fill-rule="nonzero"/>
</svg>