<svg xmlns="http://www.w3.org/2000/svg" width="45" height="51" fill="none">
<defs>
    <clipPath id="a">
        <path fill="#fff" fill-opacity="0" d="M0 0h45v50.806H0z"/>
    </clipPath>
</defs>
<path fill="none" d="M0 0h45v50.806H0z"/>
<g clip-path="url(#a)"><path fill="#E0BEA2" d="M9.43 0v7.69L34.27 25.4 9.43 43.11v7.69L45 25.4 9.43 0Z"/><path fill="#E0BEA2" d="M0 7.47v35.78L25.05 25.4 0 7.47Z"/><path fill="#FFF" fill-rule="evenodd" d="M11.25 29.27c.35.11.74.16 1.16.16q.85 0 1.52-.27c.45-.18.81-.43 1.07-.76.27-.32.4-.72.4-1.19q0-.39-.13-.72-.03-.11-.08-.21c-.14-.29-.33-.52-.58-.71-.25-.19-.53-.31-.86-.37.3-.07.57-.19.79-.35.22-.17.39-.37.51-.62.13-.24.19-.51.19-.81q0-.35-.12-.66-.08-.22-.22-.41c-.23-.31-.55-.56-.96-.74-.41-.18-.88-.28-1.41-.28q-.49 0-.95.11-.08.02-.15.04-.52.14-.95.4c-.28.16-.5.36-.67.6l.97 1.08c.15-.27.37-.49.65-.67.29-.17.62-.26.99-.26.22 0 .43.04.62.12.18.07.33.19.44.35q.04.05.07.1.1.19.1.43 0 .21-.08.38-.12.25-.41.41c-.32.19-.75.28-1.28.28h-.39v1.12h.36c.43 0 .8.04 1.1.13.29.09.52.22.67.39.15.17.23.38.23.63q0 .26-.11.46-.03.07-.08.13c-.12.15-.29.27-.51.36q-.34.14-.8.14c-.31 0-.59-.05-.83-.15-.25-.09-.45-.22-.61-.38-.17-.15-.29-.31-.36-.48l-.8 1.02c.14.28.35.53.6.73.26.21.56.36.9.47Zm-7.2-.15q.62.33 1.41.34.75-.01 1.35-.31.05-.02.09-.04c.42-.24.78-.55 1.08-.94q.22-.28.39-.58.18-.33.3-.7c.16-.48.24-.96.24-1.44q0-.65-.23-1.35-.08-.27-.19-.53-.19-.41-.45-.78c-.29-.4-.65-.72-1.08-.98-.43-.25-.93-.38-1.5-.38q-.64 0-1.18.24-.13.05-.25.12-.19.11-.37.24-.4.29-.72.7-.12.15-.22.32-.29.45-.46.97-.23.71-.23 1.43 0 .67.21 1.37c.15.46.37.89.66 1.29.29.4.65.73 1.08.97q.03.02.07.04Zm-.35-2.73q-.11-.47-.12-.94 0-.43.11-.88c.07-.31.18-.59.33-.86q.19-.33.47-.56l.12-.1.16-.1q.31-.16.69-.16c.32 0 .6.09.83.25.23.16.43.36.59.62.16.26.28.55.35.86.09.31.13.62.13.93q0 .42-.11.88c-.08.3-.19.59-.35.86-.15.27-.34.48-.58.66q-.06.04-.12.07-.32.18-.74.18-.36 0-.66-.14-.08-.04-.16-.09a2.01 2.01 0 0 1-.59-.64c-.15-.26-.27-.54-.35-.84Z"/></g></svg>