<svg xmlns="http://www.w3.org/2000/svg" width="45" height="50" fill="none"><defs><clipPath id="a"><path fill="#fff" fill-opacity="0" d="M0 0h45v50H0z"/></clipPath></defs><path fill="none" d="M0 0h45v50H0z"/><g clip-path="url(#a)"><path fill="#E0BEA2" d="M9.43 0v7.57L34.27 25 9.43 42.42V50L45 25 9.43 0Z"/><path fill="#E0BEA2" d="M0 7.35v35.22L25.05 25 0 7.35Z"/><path fill="#FFF" fill-rule="evenodd" d="M9.92 27.71c-.06.34-.09.73-.09 1.18h5.76v-1.33h-3.95c.05-.14.11-.27.18-.4.07-.13.18-.26.31-.39.14-.13.33-.28.57-.43.24-.15.55-.33.94-.54.24-.14.48-.28.71-.43.23-.15.44-.32.63-.51q.11-.12.2-.25.14-.19.23-.41c.11-.26.17-.55.17-.88 0-.45-.11-.85-.31-1.19-.21-.36-.5-.63-.9-.83-.39-.2-.88-.3-1.46-.3q-.59 0-1.08.13c-.33.08-.62.2-.88.34-.25.14-.47.28-.66.42q-.27.22-.42.4l.94.97c.13-.14.29-.28.47-.42.2-.15.41-.27.65-.36.25-.11.51-.16.79-.16.25 0 .46.05.63.13.18.09.31.22.4.38q.14.23.14.56 0 .33-.14.59-.04.07-.09.13c-.15.2-.35.37-.59.53-.24.15-.5.3-.78.44s-.54.28-.8.43c-.31.18-.57.37-.77.58-.21.2-.38.44-.52.71-.12.26-.22.57-.28.91Zm-5.9.93q.63.34 1.44.36a3.07 3.07 0 0 0 1.44-.36c.42-.23.78-.54 1.08-.92q.24-.29.41-.62.17-.3.28-.64.2-.6.23-1.21.01-.1.01-.21 0-.63-.23-1.32c-.14-.46-.35-.89-.64-1.29-.29-.39-.65-.71-1.08-.96q-.64-.38-1.5-.38-.66 0-1.21.25-.11.05-.22.11-.22.11-.42.26-.37.28-.67.66-.14.17-.26.36-.26.43-.42.91-.23.7-.23 1.4 0 .66.21 1.35c.15.46.37.88.66 1.28.29.39.65.71 1.08.95l.04.02Zm-.32-2.67c-.07-.31-.12-.62-.12-.93q0-.41.11-.86c.07-.3.18-.58.33-.85.16-.26.36-.48.59-.65q.07-.04.15-.08.31-.17.7-.17.41 0 .71.17.06.04.12.07c.23.16.43.36.59.62.16.25.28.54.35.84.09.3.13.61.13.91q0 .42-.11.87c-.08.3-.19.58-.35.85-.15.26-.34.48-.58.64q-.05.04-.1.07-.33.19-.76.19-.37 0-.67-.15-.08-.04-.15-.08c-.24-.17-.44-.37-.59-.63-.15-.26-.27-.53-.35-.83Z"/></g></svg>