<svg xmlns="http://www.w3.org/2000/svg" width="45" height="50" fill="none"><defs><clipPath id="a"><path fill="#fff" fill-opacity="0" d="M0 0h45v50H0z"/></clipPath></defs><path fill="none" d="M0 0h45v50H0z"/><g clip-path="url(#a)"><path fill="#E0BEA2" d="M9.43 0v7.57L34.27 25 9.43 42.42V50L45 25 9.43 0Z"/><path fill="#E0BEA2" d="M0 7.35v35.22L25.05 25 0 7.35Z"/><path fill="#FFF" fill-rule="evenodd" d="M15.65 28.89v-1.34h-1.42V21H12.7c-.01 0-.07.06-.18.18-.11.11-.25.23-.43.37-.18.13-.37.24-.58.35q-.31.15-.62.15v1.37c.15 0 .32-.04.5-.1.18-.07.36-.15.53-.25.18-.1.34-.2.47-.3q.22-.17.31-.3v5.08h-1.55v1.34h4.5ZM5 28.62c.43.24.93.37 1.49.38.53-.01 1.01-.13 1.44-.36.42-.23.79-.54 1.08-.92.31-.38.54-.8.7-1.27.15-.47.23-.94.23-1.42q0-.63-.22-1.33c-.14-.46-.36-.89-.65-1.29-.29-.39-.65-.71-1.08-.96q-.64-.38-1.5-.38-.67 0-1.22.25-.11.05-.21.1c-.43.23-.79.54-1.1.93q-.14.18-.26.37-.26.42-.42.91-.24.7-.24 1.4 0 .66.22 1.36.05.16.11.32.21.5.55.95.19.27.43.49.3.27.65.47Zm-.28-2.66c-.07-.31-.12-.62-.12-.93q0-.41.11-.87.09-.35.25-.68l.08-.16c.16-.27.36-.48.6-.65q.07-.05.14-.09.31-.17.71-.17.4 0 .71.18.06.03.11.07c.24.15.44.36.6.61q.03.06.06.11.2.34.3.74c.08.3.12.61.12.91q0 .42-.11.87c-.08.3-.19.59-.35.85-.15.26-.34.48-.58.65q-.05.04-.11.07-.32.18-.75.18-.38 0-.68-.14-.08-.04-.15-.09c-.24-.16-.44-.37-.59-.63-.15-.25-.27-.53-.35-.83Z"/></g></svg>