<svg xmlns="http://www.w3.org/2000/svg" width="16" height="16" fill="none"><path fill="#E0BEA2" d="M7.49 5.12c-.63 0-1.23.25-1.67.7a2.352 2.352 0 0 0 0 3.35c.44.45 1.04.7 1.67.7.63 0 1.24-.25 1.68-.7a2.352 2.352 0 0 0 0-3.35c-.44-.45-1.05-.7-1.68-.7Zm0-1.58c1.05 0 2.06.41 2.8 1.16a3.92 3.92 0 0 1 1.16 2.79c0 1.05-.41 2.06-1.16 2.8-.74.75-1.75 1.16-2.8 1.16-1.05 0-2.05-.41-2.79-1.16a3.925 3.925 0 0 1-1.16-2.8c0-1.04.41-2.05 1.16-2.79.74-.75 1.74-1.16 2.79-1.16Zm5.15-.2c0 .26-.1.51-.29.7-.19.18-.44.29-.7.29-.26 0-.51-.11-.7-.29-.18-.19-.29-.44-.29-.7 0-.26.11-.52.29-.7.19-.19.44-.29.7-.29.26 0 .51.1.7.29.19.18.29.44.29.7ZM7.49 1.16c-1.95 0-2.27.01-3.18.05-.63.03-1.04.11-1.43.26-.34.13-.59.29-.85.56-.25.24-.44.53-.56.85-.15.39-.23.81-.26 1.43-.04.87-.05 1.17-.05 3.18 0 1.96.01 2.28.05 3.19.03.62.11 1.04.26 1.43.13.34.29.59.56.85.26.27.51.43.85.56.39.15.81.23 1.43.26.87.04 1.17.05 3.18.05 1.96 0 2.28-.01 3.19-.05.62-.03 1.04-.11 1.43-.26.34-.13.59-.29.85-.56.27-.26.43-.51.56-.85.15-.39.23-.81.26-1.43.04-.87.05-1.17.05-3.19 0-1.95-.01-2.27-.05-3.18-.03-.62-.11-1.04-.26-1.43-.12-.32-.31-.61-.56-.85-.24-.25-.53-.44-.85-.56-.39-.15-.81-.23-1.43-.26-.87-.04-1.18-.05-3.19-.05Zm0-1.58c2.16 0 2.42.01 3.27.05.84.04 1.42.17 1.92.36.52.21.96.48 1.4.92.41.39.72.87.92 1.4.19.5.32 1.08.36 1.92.04.85.05 1.11.05 3.26 0 2.16-.01 2.42-.05 3.27-.04.84-.17 1.42-.36 1.92-.2.53-.51 1.01-.92 1.4-.39.41-.87.72-1.4.92-.5.19-1.08.32-1.92.36-.85.04-1.11.05-3.27.05-2.15 0-2.41-.01-3.26-.05-.84-.04-1.42-.17-1.92-.36-.53-.2-1.01-.51-1.4-.92-.41-.39-.72-.87-.92-1.4-.19-.5-.33-1.08-.36-1.92-.04-.85-.05-1.11-.05-3.27 0-2.15.01-2.41.05-3.26.03-.84.17-1.42.36-1.92.2-.53.51-1.01.92-1.4.39-.41.87-.72 1.4-.92.5-.19 1.08-.32 1.92-.36.85-.04 1.11-.05 3.26-.05Z"/></svg>