<svg width="25.000000" height="25.000000" viewBox="0 0 25 25" fill="none" xmlns="http://www.w3.org/2000/svg" xmlns:xlink="http://www.w3.org/1999/xlink">
	<desc>
			Created with Pixso.
	</desc>
	<defs>
		<clipPath id="clip100_31">
			<rect id="Frame" width="25.000000" height="25.000000" fill="rgb(224, 190, 162)" fill-opacity="0"/>
		</clipPath>
	</defs>
	<rect id="Frame" width="25.000000" height="25.000000" fill="rgb(224, 190, 162)" fill-opacity="0"/>
	<g clip-path="url(#clip100_31)">
		<path id="Vector" d="M2.5 25C2.5 22.4741 3.50342 20.0517 5.28955 18.2657C7.07544 16.4796 9.49805 15.4762 12.0239 15.4762C14.5496 15.4762 16.9722 16.4796 18.7581 18.2657C20.5442 20.0517 21.5476 22.4741 21.5476 25L19.1667 25C19.1667 23.1056 18.4141 21.2888 17.0745 19.9492C15.7351 18.6097 13.9182 17.8571 12.0239 17.8571C10.1294 17.8571 8.3125 18.6097 6.97314 19.9492C5.63354 21.2888 4.88086 23.1056 4.88086 25L2.5 25ZM12.0239 14.2857C8.07739 14.2857 4.88086 11.0893 4.88086 7.14285C4.88086 3.19644 8.07739 0 12.0239 0C15.9702 0 19.1667 3.19644 19.1667 7.14285C19.1667 11.0893 15.9702 14.2857 12.0239 14.2857ZM12.0239 11.9048C14.6548 11.9048 16.7856 9.7738 16.7856 7.14285C16.7856 4.5119 14.6548 2.38095 12.0239 2.38095C9.39282 2.38095 7.26196 4.5119 7.26196 7.14285C7.26196 9.7738 9.39282 11.9048 12.0239 11.9048Z" fill="rgb(224, 190, 162)" fill-opacity="1.000000" fill-rule="nonzero"/>
	</g>
</svg>