<svg xmlns="http://www.w3.org/2000/svg" width="30" height="30" fill="none"><path fill="#E0BEA2" d="m13.68 0 14.27 2.04 2.04 14.27-13.25 13.26c-.27.27-.64.43-1.02.43-.39 0-.75-.16-1.02-.43L.42 15.29a1.446 1.446 0 0 1 0-2.04L13.68 0Zm4.08 12.23c.26.27.58.48.93.63.35.14.73.22 1.11.22.37 0 .75-.08 1.1-.22.35-.15.67-.36.93-.63.27-.26.49-.58.63-.93.15-.35.22-.73.22-1.11 0-.37-.08-.75-.22-1.1-.15-.35-.36-.67-.63-.94-.26-.26-.58-.48-.93-.62a2.91 2.91 0 0 0-3.15.62 2.91 2.91 0 0 0-.84 2.04c0 .77.3 1.5.85 2.04Z"/></svg>