<svg xmlns="http://www.w3.org/2000/svg" width="16" height="16" fill="none"><path fill="#E0BEA2" d="M7.49 13.83c1.68 0 3.3-.67 4.48-1.86a6.313 6.313 0 0 0 0-8.95 6.319 6.319 0 0 0-4.48-1.86c-1.68 0-3.29.67-4.47 1.86a6.313 6.313 0 0 0 0 8.95 6.295 6.295 0 0 0 4.47 1.86Zm0 1.58A7.91 7.91 0 0 1-.42 7.49c0-4.37 3.54-7.91 7.91-7.91a7.91 7.91 0 0 1 7.92 7.91c0 4.38-3.54 7.92-7.92 7.92ZM5.03 8.42 3.06 7.8c-.43-.13-.43-.42.09-.63l7.71-2.98c.44-.18.7.05.55.63l-1.31 6.19c-.09.44-.36.54-.73.34L7.36 9.86l-.95.9c-.09.1-.17.18-.32.2-.15.02-.27-.03-.36-.27l-.69-2.27h-.01Z"/></svg>